#!OML:ASF H:\Terrain\Patient Classification 1\Animal2\Wednesday\Animal2.ASF
:FULLY-SPECIFIED
:DEGREES
2549
root 20.5535 17.683 -16.3981 181.199 -168.796 -179.737
lowerback 0.751538 -1.75865 2.67503
upperback -12.5978 -2.20726 0.418861
thorax -14.2689 -1.36949 -0.728805
lowerneck -3.36529 13.4737 16.357
upperneck 11.3471 20.1158 -19.716
head 7.77079 9.46344 -7.00441
rclavicle -1.19271e-014 -9.93923e-015
rhumerus 5.43868 -29.0514 -3.77822
rradius 48.5933
rwrist -40.9732
rhand -11.1253 24.0459
rfingers 7.12502
rthumb 14.8997 -5.39828
lclavicle -1.19271e-014 -9.93923e-015
lhumerus -25.7096 -31.3413 31.7252
lradius 53.3009
lwrist 83.1357
lhand -23.2157 17.473
lfingers 7.12502
lthumb 3.23479 47.4282
rfemur -3.09444 -9.42332 20.0771
rtibia 24.5542
rfoot -25.8603 -5.96442
rtoes 29.2939
lfemur -9.62322 -1.89255 -17.3542
ltibia 27.0593
lfoot -19.034 5.45207
ltoes -24.8411
2550
root 20.5508 17.6852 -16.4074 181.241 -168.528 -179.783
lowerback 0.814275 -1.88311 2.6449
upperback -12.5808 -2.37827 0.435366
thorax -14.2929 -1.44718 -0.668997
lowerneck -3.44252 13.53 16.6763
upperneck 11.4925 20.2356 -19.9671
head 7.92098 9.50962 -7.11097
rclavicle -2.20651e-014 3.97569e-016
rhumerus 5.26181 -28.5486 -3.91257
rradius 48.7118
rwrist -41.1659
rhand -11.3807 24.115
rfingers 7.12502
rthumb 14.6537 -5.34717
lclavicle -2.20651e-014 3.97569e-016
lhumerus -24.9196 -31.5185 31.9545
lradius 51.8478
lwrist 81.8008
lhand -23.5378 17.8055
lfingers 7.12502
lthumb 2.92369 47.7652
rfemur -3.26078 -9.40542 20.1219
rtibia 24.6331
rfoot -25.7881 -5.82784
rtoes 28.8024
lfemur -9.62412 -2.04081 -17.3138
ltibia 26.9937
lfoot -18.8149 6.05789
ltoes -25.8237
2551
root 20.5498 17.6868 -16.4194 181.257 -168.366 -179.832
lowerback 0.841752 -2.03929 2.56075
upperback -12.4962 -2.59096 0.508235
thorax -14.2061 -1.5326 -0.515347
lowerneck -3.36136 13.5856 16.3028
upperneck 11.3229 20.2785 -19.7621
head 7.79409 9.53361 -6.98332
rclavicle 4.6118e-014 1.07344e-014
rhumerus 5.25639 -28.2755 -4.03407
rradius 48.8052
rwrist -41.439
rhand -11.4973 24.2774
rfingers 7.12502
rthumb 14.5414 -5.19294
lclavicle 4.6118e-014 1.07344e-014
lhumerus -24.1274 -31.4456 32.3877
lradius 50.3815
lwrist 80.3479
lhand -23.753 18.1729
lfingers 7.12502
lthumb 2.71594 48.1354
rfemur -3.37126 -9.32341 20.2064
rtibia 24.6906
rfoot -25.7285 -5.87111
rtoes 28.2731
lfemur -9.64342 -2.1427 -17.247
ltibia 26.9437
lfoot -18.5918 6.32552
ltoes -26.0605
2552
root 20.5502 17.6927 -16.4288 181.291 -168.083 -179.964
lowerback 0.845946 -2.15009 2.49154
upperback -12.3756 -2.73093 0.672915
thorax -14.052 -1.57764 -0.281594
lowerneck -3.36593 13.8019 16.0089
upperneck 11.0503 20.5211 -19.5702
head 7.69832 9.65212 -6.83044
rclavicle 2.68359e-014 3.45885e-014
rhumerus 5.44765 -28.4381 -4.24429
rradius 48.8198
rwrist -41.2041
rhand -11.266 24.2341
rfingers 7.12502
rthumb 14.7642 -5.22007
lclavicle 2.68359e-014 3.45885e-014
lhumerus -23.5249 -31.5462 33.0697
lradius 49.1278
lwrist 79.1324
lhand -24.4252 18.2497
lfingers 7.12502
lthumb 2.06671 48.2195
rfemur -3.49661 -9.40717 20.325
rtibia 24.7347
rfoot -25.5325 -5.81285
rtoes 27.2277
lfemur -9.58147 -2.24325 -17.1143
ltibia 26.8881
lfoot -18.7166 6.03985
ltoes -23.6467
2553
root 20.5523 17.7001 -16.4366 181.44 -167.699 -180.026
lowerback 0.801988 -2.22943 2.45833
upperback -12.3987 -2.83864 0.740591
thorax -14.0498 -1.62185 -0.175469
lowerneck -3.10646 13.9679 16.3135
upperneck 10.789 20.769 -19.813
head 7.68012 9.79155 -6.92876
rclavicle -2.82274e-014 -4.29375e-014
rhumerus 5.51743 -28.4314 -4.51451
rradius 48.8184
rwrist -40.9386
rhand -10.9673 24.0371
rfingers 7.12502
rthumb 15.052 -5.39568
lclavicle -2.82274e-014 -4.29375e-014
lhumerus -23.3318 -32.6638 33.7663
lradius 48.2786
lwrist 78.4056
lhand -25.4849 17.8561
lfingers 7.12502
lthumb 1.04327 47.8333
rfemur -3.75668 -9.40212 20.3739
rtibia 24.7739
rfoot -25.2793 -5.76822
rtoes 26.2623
lfemur -9.62108 -2.31573 -17.0824
ltibia 26.8193
lfoot -18.8514 6.02416
ltoes -22.1131
2554
root 20.5549 17.704 -16.4429 181.603 -167.332 -179.935
lowerback 0.750191 -2.27675 2.35124
upperback -12.4748 -2.9243 0.674007
thorax -14.1099 -1.65824 -0.177202
lowerneck -2.79462 14.0057 16.5961
upperneck 10.5966 20.8447 -20.0083
head 7.63393 9.8532 -7.0434
rclavicle 7.69297e-014 3.85642e-014
rhumerus 5.2779 -28.2348 -4.58197
rradius 48.8854
rwrist -40.8662
rhand -10.8489 23.9017
rfingers 7.12502
rthumb 15.166 -5.52252
lclavicle 7.69297e-014 3.85642e-014
lhumerus -22.6755 -33.3877 34.4302
lradius 46.6963
lwrist 76.9155
lhand -25.9238 17.7136
lfingers 7.12502
lthumb 0.619381 47.6925
rfemur -4.05315 -9.29761 20.2749
rtibia 24.8384
rfoot -25.1661 -5.69615
rtoes 25.9331
lfemur -9.71927 -2.3232 -17.2083
ltibia 26.71
lfoot -18.7176 6.449
ltoes -22.5602
2555
root 20.5567 17.7063 -16.4452 181.729 -166.955 -179.894
lowerback 0.668921 -2.32301 2.26023
upperback -12.4738 -3.00121 0.662259
thorax -14.0538 -1.68707 -0.13356
lowerneck -2.65658 14.0687 16.7018
upperneck 10.4772 20.9393 -20.1001
head 7.6134 9.9086 -7.08191
rclavicle 8.28932e-014 2.82274e-014
rhumerus 5.09022 -28.0672 -4.58749
rradius 48.9625
rwrist -40.8903
rhand -11.0232 23.8393
rfingers 7.12502
rthumb 14.9981 -5.59754
lclavicle 8.28932e-014 2.82274e-014
lhumerus -21.5882 -33.2011 35.1698
lradius 44.3618
lwrist 74.8055
lhand -25.7471 17.973
lfingers 7.12502
lthumb 0.790019 47.9513
rfemur -4.31613 -9.32596 20.2028
rtibia 24.9668
rfoot -25.1389 -5.49479
rtoes 25.6032
lfemur -9.72884 -2.21317 -17.2659
ltibia 26.5417
lfoot -18.5696 6.68056
ltoes -22.582
2556
root 20.5621 17.7084 -16.4477 181.762 -166.609 -179.789
lowerback 0.611884 -2.40279 2.1055
upperback -12.433 -3.12316 0.690207
thorax -13.9587 -1.72661 -0.00613688
lowerneck -2.43235 14.1484 16.8689
upperneck 10.2745 21.0838 -20.3685
head 7.59078 9.9893 -7.18565
rclavicle 6.59965e-014 1.03368e-014
rhumerus 5.13805 -27.9681 -4.6933
rradius 48.9675
rwrist -40.9311
rhand -11.157 23.7943
rfingers 7.12502
rthumb 14.8692 -5.6521
lclavicle 6.59965e-014 1.03368e-014
lhumerus -20.814 -32.663 36.0205
lradius 42.2816
lwrist 72.4407
lhand -25.5576 18.5102
lfingers 7.12502
lthumb 0.973071 48.4877
rfemur -4.50349 -9.54484 20.0052
rtibia 25.1273
rfoot -25.1049 -4.98128
rtoes 25.2166
lfemur -9.64163 -2.22288 -17.4171
ltibia 26.3644
lfoot -18.5941 6.76626
ltoes -21.7777
2557
root 20.5712 17.71 -16.4541 181.745 -166.317 -179.609
lowerback 0.68451 -2.50643 1.93309
upperback -12.4389 -3.28164 0.668785
thorax -14.0053 -1.7853 0.0902885
lowerneck -2.32595 14.2338 17.0831
upperneck 10.2521 21.2373 -20.5532
head 7.64389 10.0675 -7.25802
rclavicle -7.13637e-014 -1.74931e-014
rhumerus 5.2491 -28.025 -4.95646
rradius 48.9241
rwrist -40.6768
rhand -11.0291 23.7364
rfingers 7.12502
rthumb 14.9925 -5.70087
lclavicle -7.13637e-014 -1.74931e-014
lhumerus -20.3497 -32.1707 36.9724
lradius 40.4678
lwrist 70.3818
lhand -24.6467 19.208
lfingers 7.12502
lthumb 1.85277 49.1797
rfemur -4.66229 -9.77202 19.7159
rtibia 25.2632
rfoot -25.04 -4.43744
rtoes 24.7736
lfemur -9.55922 -2.36163 -17.6691
ltibia 26.229
lfoot -18.613 7.02008
ltoes -21.408
2558
root 20.5785 17.71 -16.4622 181.646 -165.905 -179.538
lowerback 0.916092 -2.59777 1.81892
upperback -12.4326 -3.40802 0.717449
thorax -14.1359 -1.82852 0.235974
lowerneck -2.25542 14.3453 17.1866
upperneck 10.2321 21.4208 -20.6815
head 7.69091 10.1556 -7.28712
rclavicle -4.37326e-014 -2.3059e-014
rhumerus 5.40344 -28.0111 -5.17318
rradius 48.8931
rwrist -40.5394
rhand -10.9518 23.6415
rfingers 7.12502
rthumb 15.0669 -5.79023
lclavicle -4.37326e-014 -2.3059e-014
lhumerus -20.158 -31.8801 38.1452
lradius 38.8872
lwrist 68.9828
lhand -24.1885 19.8094
lfingers 7.12502
lthumb 2.29534 49.7768
rfemur -4.71911 -9.8549 19.5449
rtibia 25.3642
rfoot -24.9243 -3.98573
rtoes 24.6783
lfemur -9.3674 -2.30003 -17.7997
ltibia 26.1409
lfoot -18.5215 7.39145
ltoes -21.221
2559
root 20.5832 17.712 -16.4702 181.548 -165.419 -179.578
lowerback 1.13246 -2.64929 1.72583
upperback -12.3854 -3.47217 0.822669
thorax -14.2023 -1.83949 0.421732
lowerneck -1.95888 14.4436 17.0866
upperneck 9.84294 21.547 -20.7629
head 7.53879 10.2374 -7.29799
rclavicle -1.78906e-015 1.15295e-014
rhumerus 5.44422 -27.866 -5.14441
rradius 48.9249
rwrist -40.812
rhand -10.8852 23.5811
rfingers 7.12502
rthumb 15.1311 -5.84577
lclavicle -1.78906e-015 1.15295e-014
lhumerus -20.0344 -31.9092 39.4607
lradius 37.4238
lwrist 67.0011
lhand -25.7572 20.0876
lfingers 7.12502
lthumb 0.780238 50.0659
rfemur -4.74047 -9.72424 19.5248
rtibia 25.4107
rfoot -24.8015 -3.70032
rtoes 24.9126
lfemur -9.16809 -2.18973 -17.8044
ltibia 26.109
lfoot -18.4585 7.73977
ltoes -20.4892
2560
root 20.5891 17.7145 -16.4773 181.614 -165.044 -179.672
lowerback 1.20294 -2.71971 1.76118
upperback -12.4121 -3.56062 0.877373
thorax -14.2803 -1.88217 0.480203
lowerneck -1.57567 14.5509 17.0021
upperneck 9.50706 21.6757 -20.6734
head 7.36842 10.3337 -7.26142
rclavicle 3.83654e-014 7.95139e-015
rhumerus 5.31171 -27.6028 -5.06872
rradius 49.0376
rwrist -41.059
rhand -10.7937 23.6206
rfingers 7.12502
rthumb 15.2192 -5.79961
lclavicle 3.83654e-014 7.95139e-015
lhumerus -19.9308 -32.1188 40.8227
lradius 36.1349
lwrist 65.2742
lhand -28.7206 20.4821
lfingers 7.12502
lthumb -2.08183 50.4517
rfemur -4.87398 -9.53631 19.6172
rtibia 25.3916
rfoot -24.7295 -3.62435
rtoes 24.8296
lfemur -9.18905 -2.20457 -17.7386
ltibia 26.1296
lfoot -18.7083 7.99727
ltoes -19.9964
2561
root 20.596 17.7165 -16.486 181.703 -164.734 -179.823
lowerback 1.29062 -2.82767 1.9079
upperback -12.5077 -3.69068 0.933339
thorax -14.4638 -1.95755 0.489761
lowerneck -1.16506 14.6345 17.1872
upperneck 9.50062 21.8531 -20.7322
head 7.35882 10.4484 -7.30701
rclavicle -7.91163e-014 -3.10104e-014
rhumerus 5.22412 -27.3594 -5.12553
rradius 49.1232
rwrist -41.1169
rhand -10.696 23.7867
rfingers 7.12502
rthumb 15.3133 -5.62634
lclavicle -7.91163e-014 -3.10104e-014
lhumerus -20.0575 -32.1106 42.342
lradius 35.1137
lwrist 64.2638
lhand -31.3009 21.3407
lfingers 7.12502
lthumb -4.57365 51.2713
rfemur -5.00007 -9.43109 19.7722
rtibia 25.3743
rfoot -24.682 -3.46693
rtoes 24.6686
lfemur -9.22498 -2.1437 -17.594
ltibia 26.1287
lfoot -19.0135 8.16663
ltoes -20.1469
2562
root 20.6035 17.7198 -16.4907 181.755 -164.358 -179.939
lowerback 1.34067 -2.94356 2.00622
upperback -12.5516 -3.83346 1.0124
thorax -14.5547 -2.03178 0.548799
lowerneck -0.793298 14.6913 17.6616
upperneck 9.49876 22.0541 -21.2139
head 7.45435 10.5633 -7.52691
rclavicle -1.12313e-013 -5.28767e-014
rhumerus 5.37662 -27.3739 -5.3608
rradius 49.0652
rwrist -41.0315
rhand -10.5852 23.8295
rfingers 7.12502
rthumb 15.42 -5.5754
lclavicle -1.12313e-013 -5.28767e-014
lhumerus -20.2816 -31.9228 43.9456
lradius 33.7842
lwrist 62.7812
lhand -31.7483 21.8536
lfingers 7.12502
lthumb -5.00572 51.7745
rfemur -5.09707 -9.45148 19.8424
rtibia 25.3856
rfoot -24.5972 -3.13037
rtoes 24.6919
lfemur -9.17105 -1.99051 -17.4959
ltibia 26.0937
lfoot -19.0831 8.2979
ltoes -20.3603
